{
  "source": "C:\\Users\\Peter\\Desktop\\stuff\\MIUN\\quantitative_research\\video_compression\\videos\\BVI-HD\\Typing_1920x1080_60fps.mp4",
  "output": "C:\\Users\\Peter\\Desktop\\stuff\\MIUN\\quantitative_research\\video_compression\\compressed_videos\\BVI-HD\\av1\\12\\Typing_1920x1080_60fps_av1.mkv",
  "codec": "av1",
  "ok": "Input #0, mov,mp4,m4a,3gp,3g2,mj2, from 'C:\\Users\\Peter\\Desktop\\stuff\\MIUN\\quantitative_research\\video_compression\\videos\\BVI-HD\\Typing_1920x1080_60fps.mp4':\n  Metadata:\n    major_brand     : isom\n    minor_version   : 512\n    compatible_brands: isomiso2avc1mp41\n    encoder         : Lavf54.28.101\n  Duration: 00:00:05.00, start: 0.000000, bitrate: 203453 kb/s\n  Stream #0:0[0x1](und): Video: h264 (High 4:4:4 Predictive) (avc1 / 0x31637661), yuv420p(progressive), 1920x1080, 203448 kb/s, 60 fps, 60 tbr, 60 tbn (default)\n    Metadata:\n      handler_name    : VideoHandler\n      vendor_id       : [0][0][0][0]\n[out#0/matroska @ 000001bffc3d0d80] Codec AVOption b:a (set bitrate (in bits/s)) has not been used for any stream. The most likely reason is either wrong type (e.g. a video option with no video streams) or that it is a private option of some decoder which was not actually used for any stream.\nStream mapping:\n  Stream #0:0 -> #0:0 (h264 (native) -> av1 (libsvtav1))\nPress [q] to stop, [?] for help\nSvt[info]: -------------------------------------------\nSvt[info]: SVT [version]:\tSVT-AV1 Encoder Lib v3.1.0-19-g6ecfe8ec\nSvt[info]: SVT [build]  :\tGCC 15.2.0\t 64 bit\nSvt[info]: LIB Build date: Aug 17 2025 11:37:13\nSvt[info]: -------------------------------------------\nSvt[info]: Level of Parallelism: 5\nSvt[info]: Number of PPCS 93\nSvt[info]: [asm level on system : up to avx2]\nSvt[info]: [asm level selected : up to avx2]\nSvt[info]: -------------------------------------------\nSvt[info]: SVT [config]: main profile\ttier (auto)\tlevel (auto)\nSvt[info]: SVT [config]: width / height / fps numerator / fps denominator \t\t: 1920 / 1080 / 60 / 1\nSvt[info]: SVT [config]: bit-depth / color format \t\t\t\t\t: 8 / YUV420\nSvt[info]: SVT [config]: preset / tune / pred struct \t\t\t\t\t: 4 / PSNR / random access\nSvt[info]: SVT [config]: gop size / mini-gop size / key-frame type \t\t\t: 321 / 16 / key frame\nSvt[info]: SVT [config]: BRC mode / target bitrate (kbps)\t\t\t\t: VBR / 12000 \nSvt[info]: SVT [config]: AQ mode / Variance Boost \t\t\t\t\t: 2 / 0\nSvt[info]: SVT [config]: sharpness / luminance-based QP bias \t\t\t\t: 0 / 0\nSvt[info]: SVT [config]: QP scale compress strength \t\t\t\t\t: 0\nSvt[info]: -------------------------------------------\nOutput #0, matroska, to 'C:\\Users\\Peter\\Desktop\\stuff\\MIUN\\quantitative_research\\video_compression\\compressed_videos\\BVI-HD\\av1\\12\\Typing_1920x1080_60fps_av1.mkv':\n  Metadata:\n    major_brand     : isom\n    minor_version   : 512\n    compatible_brands: isomiso2avc1mp41\n    encoder         : Lavf62.3.100\n  Stream #0:0(und): Video: av1 (AV01 / 0x31305641), yuv420p(tv, progressive), 1920x1080, q=2-31, 12000 kb/s, 60 fps, 1k tbn (default)\n    Metadata:\n      encoder         : Lavc62.11.100 libsvtav1\n      handler_name    : VideoHandler\n      vendor_id       : [0][0][0][0]\n    Side data:\n      cpb: bitrate max/min/avg: 0/0/12000000 buffer size: 12000000 vbv_delay: N/A\nframe=    0 fps=0.0 q=0.0 size=       0KiB time=N/A bitrate=N/A speed=N/A elapsed=0:00:02.08    \nframe=    0 fps=0.0 q=0.0 size=       0KiB time=N/A bitrate=N/A speed=N/A elapsed=0:00:02.63    \nframe=    0 fps=0.0 q=0.0 size=       0KiB time=N/A bitrate=N/A speed=N/A elapsed=0:00:03.15    \nframe=    0 fps=0.0 q=0.0 size=       0KiB time=N/A bitrate=N/A speed=N/A elapsed=0:00:03.70    \nframe=    0 fps=0.0 q=0.0 size=       0KiB time=N/A bitrate=N/A speed=N/A elapsed=0:00:04.23    \nframe=    1 fps=0.2 q=1.0 size=       1KiB time=00:00:00.00 bitrate=N/A speed=   0x elapsed=0:00:04.73    \nframe=    1 fps=0.2 q=1.0 size=       1KiB time=00:00:00.00 bitrate=N/A speed=   0x elapsed=0:00:05.26    \nframe=    3 fps=0.5 q=14.0 size=       1KiB time=00:00:00.03 bitrate= 170.9kbits/s speed=0.00575x elapsed=0:00:05.79    \nframe=    7 fps=1.1 q=14.0 size=       1KiB time=00:00:00.10 bitrate=  57.0kbits/s speed=0.0157x elapsed=0:00:06.36    \nframe=   10 fps=1.5 q=17.0 size=       1KiB time=00:00:00.15 bitrate=  38.0kbits/s speed=0.0218x elapsed=0:00:06.88    \nframe=   16 fps=2.2 q=15.0 size=       1KiB time=00:00:00.25 bitrate=  22.8kbits/s speed=0.0337x elapsed=0:00:07.41    \nframe=   19 fps=2.4 q=13.0 size=       1KiB time=00:00:00.30 bitrate=  19.0kbits/s speed=0.0377x elapsed=0:00:07.96    \nframe=   23 fps=2.7 q=13.0 size=       1KiB time=00:00:00.36 bitrate=  15.5kbits/s speed=0.0432x elapsed=0:00:08.48    \nframe=   25 fps=2.8 q=7.0 size=       1KiB time=00:00:00.40 bitrate=  14.2kbits/s speed=0.0445x elapsed=0:00:08.99    \nframe=   29 fps=3.0 q=11.0 size=       1KiB time=00:00:00.46 bitrate=  12.2kbits/s speed=0.0489x elapsed=0:00:09.53    \nframe=   33 fps=3.3 q=3.0 size=       1KiB time=00:00:00.53 bitrate=  10.7kbits/s speed=0.053x elapsed=0:00:10.06    \nframe=   39 fps=3.7 q=13.0 size=       1KiB time=00:00:00.63 bitrate=   9.0kbits/s speed=0.0598x elapsed=0:00:10.58    \nframe=   41 fps=3.7 q=6.0 size=       1KiB time=00:00:00.66 bitrate=   8.5kbits/s speed=0.06x elapsed=0:00:11.10    \nframe=   45 fps=3.9 q=11.0 size=       1KiB time=00:00:00.73 bitrate=   7.8kbits/s speed=0.063x elapsed=0:00:11.63    \nframe=   50 fps=4.1 q=9.0 size=       1KiB time=00:00:00.81 bitrate=   7.0kbits/s speed=0.067x elapsed=0:00:12.18    \nframe=   54 fps=4.3 q=10.0 size=       1KiB time=00:00:00.88 bitrate=   6.4kbits/s speed=0.0695x elapsed=0:00:12.70    \nframe=   57 fps=4.3 q=6.0 size=       1KiB time=00:00:00.93 bitrate=   6.1kbits/s speed=0.0706x elapsed=0:00:13.21    \nframe=   60 fps=4.4 q=10.0 size=       1KiB time=00:00:00.98 bitrate=   5.8kbits/s speed=0.0715x elapsed=0:00:13.74    \nframe=   64 fps=4.5 q=11.0 size=       1KiB time=00:00:01.05 bitrate=   5.4kbits/s speed=0.0735x elapsed=0:00:14.28    \nframe=   69 fps=4.7 q=11.0 size=       1KiB time=00:00:01.13 bitrate=   5.0kbits/s speed=0.0766x elapsed=0:00:14.80    \nframe=   73 fps=4.8 q=4.0 size=       1KiB time=00:00:01.20 bitrate=   4.7kbits/s speed=0.0783x elapsed=0:00:15.32    \nframe=   77 fps=4.9 q=11.0 size=       1KiB time=00:00:01.25 bitrate=   4.6kbits/s speed=0.0789x elapsed=0:00:15.83    \nframe=   82 fps=5.0 q=9.0 size=       1KiB time=00:00:01.35 bitrate=   4.2kbits/s speed=0.0826x elapsed=0:00:16.35    \nframe=   86 fps=5.1 q=11.0 size=       1KiB time=00:00:01.41 bitrate=   4.0kbits/s speed=0.084x elapsed=0:00:16.86    \nframe=   90 fps=5.2 q=11.0 size=       1KiB time=00:00:01.46 bitrate=   3.9kbits/s speed=0.0843x elapsed=0:00:17.39    \nframe=   92 fps=5.1 q=10.0 size=       1KiB time=00:00:01.51 bitrate=   3.8kbits/s speed=0.0846x elapsed=0:00:17.92    \nframe=   99 fps=5.4 q=13.0 size=       1KiB time=00:00:01.63 bitrate=   3.5kbits/s speed=0.0885x elapsed=0:00:18.45    \nframe=  102 fps=5.4 q=13.0 size=       1KiB time=00:00:01.68 bitrate=   3.4kbits/s speed=0.0887x elapsed=0:00:18.96    \nframe=  106 fps=5.4 q=11.0 size=       1KiB time=00:00:01.75 bitrate=   3.3kbits/s speed=0.0898x elapsed=0:00:19.49    \nframe=  109 fps=5.4 q=11.0 size=       1KiB time=00:00:01.80 bitrate=   3.2kbits/s speed=0.0899x elapsed=0:00:20.02    \nframe=  115 fps=5.6 q=11.0 size=       1KiB time=00:00:01.90 bitrate=   3.0kbits/s speed=0.0924x elapsed=0:00:20.55    \nframe=  118 fps=5.6 q=11.0 size=       1KiB time=00:00:01.95 bitrate=   2.9kbits/s speed=0.0925x elapsed=0:00:21.07    \nframe=  122 fps=5.6 q=11.0 size=       1KiB time=00:00:02.01 bitrate=   2.8kbits/s speed=0.0934x elapsed=0:00:21.59    \nframe=  125 fps=5.7 q=10.0 size=       1KiB time=00:00:02.06 bitrate=   2.8kbits/s speed=0.0935x elapsed=0:00:22.11    \nframe=  130 fps=5.7 q=12.0 size=       1KiB time=00:00:02.15 bitrate=   2.6kbits/s speed=0.095x elapsed=0:00:22.64    \nframe=  133 fps=5.7 q=11.0 size=       1KiB time=00:00:02.20 bitrate=   2.6kbits/s speed=0.095x elapsed=0:00:23.14    \nframe=  137 fps=5.8 q=6.0 size=       1KiB time=00:00:02.26 bitrate=   2.5kbits/s speed=0.0957x elapsed=0:00:23.68    \nframe=  141 fps=5.8 q=11.0 size=       1KiB time=00:00:02.33 bitrate=   2.4kbits/s speed=0.0964x elapsed=0:00:24.20    \nframe=  147 fps=5.9 q=13.0 size=       1KiB time=00:00:02.43 bitrate=   2.3kbits/s speed=0.0984x elapsed=0:00:24.72    \nframe=  151 fps=6.0 q=12.0 size=       1KiB time=00:00:02.50 bitrate=   2.3kbits/s speed=0.099x elapsed=0:00:25.25    \nframe=  155 fps=6.0 q=13.0 size=       1KiB time=00:00:02.56 bitrate=   2.2kbits/s speed=0.0995x elapsed=0:00:25.80    \nframe=  161 fps=6.1 q=2.0 size=       1KiB time=00:00:02.66 bitrate=   2.1kbits/s speed=0.101x elapsed=0:00:26.35    \nframe=  165 fps=6.1 q=11.0 size=       1KiB time=00:00:02.73 bitrate=   2.1kbits/s speed=0.102x elapsed=0:00:26.87    \nframe=  169 fps=6.2 q=7.0 size=       1KiB time=00:00:02.80 bitrate=   2.0kbits/s speed=0.102x elapsed=0:00:27.38    \nframe=  173 fps=6.2 q=10.0 size=       1KiB time=00:00:02.86 bitrate=   2.0kbits/s speed=0.103x elapsed=0:00:27.89    \nframe=  179 fps=6.3 q=10.0 size=       1KiB time=00:00:02.96 bitrate=   1.9kbits/s speed=0.104x elapsed=0:00:28.43    \nframe=  183 fps=6.3 q=10.0 size=       1KiB time=00:00:03.03 bitrate=   1.9kbits/s speed=0.105x elapsed=0:00:28.95    \nframe=  187 fps=6.3 q=12.0 size=       1KiB time=00:00:03.10 bitrate=   1.8kbits/s speed=0.105x elapsed=0:00:29.48    \nframe=  192 fps=6.4 q=12.0 size=       1KiB time=00:00:03.18 bitrate=   1.8kbits/s speed=0.106x elapsed=0:00:30.00    \nframe=  197 fps=6.5 q=9.0 size=       1KiB time=00:00:03.26 bitrate=   1.7kbits/s speed=0.107x elapsed=0:00:30.52    \nframe=  199 fps=6.4 q=12.0 size=    5120KiB time=00:00:03.30 bitrate=12710.0kbits/s speed=0.106x elapsed=0:00:31.04    \nframe=  205 fps=6.5 q=11.0 size=    5120KiB time=00:00:03.40 bitrate=12336.2kbits/s speed=0.108x elapsed=0:00:31.55    \nframe=  211 fps=6.6 q=12.0 size=    5120KiB time=00:00:03.50 bitrate=11983.7kbits/s speed=0.109x elapsed=0:00:32.10    \nframe=  217 fps=6.6 q=7.0 size=    5120KiB time=00:00:03.60 bitrate=11650.8kbits/s speed=0.11x elapsed=0:00:32.63    \nframe=  219 fps=6.6 q=12.0 size=    5120KiB time=00:00:03.63 bitrate=11544.0kbits/s speed=0.11x elapsed=0:00:33.15    \nframe=  225 fps=6.7 q=2.0 size=    5120KiB time=00:00:03.73 bitrate=11234.7kbits/s speed=0.111x elapsed=0:00:33.67    \nframe=  231 fps=6.7 q=11.0 size=    5120KiB time=00:00:03.83 bitrate=10941.7kbits/s speed=0.112x elapsed=0:00:34.22    \nframe=  233 fps=6.7 q=8.0 size=    5120KiB time=00:00:03.86 bitrate=10847.3kbits/s speed=0.111x elapsed=0:00:34.75    \nframe=  239 fps=6.8 q=12.0 size=    5120KiB time=00:00:03.96 bitrate=10573.9kbits/s speed=0.112x elapsed=0:00:35.29    \nframe=  245 fps=6.8 q=10.0 size=    5120KiB time=00:00:04.06 bitrate=10313.9kbits/s speed=0.113x elapsed=0:00:35.84    \nframe=  249 fps=6.9 q=7.0 size=    5120KiB time=00:00:04.13 bitrate=10147.5kbits/s speed=0.114x elapsed=0:00:36.34    \nframe=  253 fps=6.9 q=11.0 size=    5120KiB time=00:00:04.20 bitrate=9986.4kbits/s speed=0.114x elapsed=0:00:36.87    \nframe=  257 fps=6.9 q=2.0 size=    5120KiB time=00:00:04.26 bitrate=9830.4kbits/s speed=0.114x elapsed=0:00:37.39    \nframe=  261 fps=6.9 q=10.0 size=    5120KiB time=00:00:04.33 bitrate=9679.2kbits/s speed=0.114x elapsed=0:00:37.91    \nframe=  265 fps=6.9 q=8.0 size=    5120KiB time=00:00:04.40 bitrate=9532.5kbits/s speed=0.114x elapsed=0:00:38.44    \nframe=  269 fps=6.9 q=10.0 size=    5120KiB time=00:00:04.46 bitrate=9390.2kbits/s speed=0.115x elapsed=0:00:38.98    \nframe=  277 fps=7.0 q=14.0 size=    5120KiB time=00:00:04.56 bitrate=9184.6kbits/s speed=0.115x elapsed=0:00:39.56    \nframe=  281 fps=7.0 q=9.0 size=    5120KiB time=00:00:04.66 bitrate=8987.8kbits/s speed=0.116x elapsed=0:00:40.07    \nframe=  285 fps=7.0 q=14.0 size=    5120KiB time=00:00:04.73 bitrate=8861.2kbits/s speed=0.117x elapsed=0:00:40.60    \nframe=  295 fps=7.2 q=14.0 size=    5120KiB time=00:00:04.90 bitrate=8559.8kbits/s speed=0.119x elapsed=0:00:41.12    \n[out#0/matroska @ 000001bffc3d0d80] video:6879KiB audio:0KiB subtitle:0KiB other streams:0KiB global headers:0KiB muxing overhead: 0.031500%\nframe=  300 fps=7.3 q=17.0 Lsize=    6881KiB time=00:00:04.98 bitrate=11312.3kbits/s speed=0.121x elapsed=0:00:41.23    \n",
  "seconds": 41.80512595176697,
  "probe_out": {}
}